<svg xmlns="http://www.w3.org/2000/svg" viewBox="0 0 192 192" fill="none">
  <rect width="192" height="192" fill="#1DB954" rx="48"/>
  <g transform="translate(48, 48)">
    <path d="M48 0C21.6 0 0 21.6 0 48s21.6 48 48 48 48-21.6 48-48S74.64 0 48 0zm22.08 69.36c-.96 1.44-2.64 1.92-4.08.96-11.28-6.96-25.44-8.4-42.24-4.56-1.68.48-3.12-.72-3.6-2.16-.48-1.68.72-3.12 2.16-3.6 18.24-4.08 34.08-2.4 46.56 5.28 1.68.72 1.92 2.64 1.2 4.08zm5.76-13.2c-1.2 1.68-3.36 2.4-5.04 1.2-12.96-7.92-32.64-10.32-47.76-5.52-1.92.48-4.08-.48-4.56-2.4-.48-1.92.48-4.08 2.4-4.56 17.28-5.28 39.12-2.64 54 6.24 1.44.72 2.16 3.12.96 4.8zm.48-13.44C62.4 33.6 35.28 32.64 20.64 37.2c-2.4.72-4.8-.72-5.52-2.88-.72-2.4.72-4.8 2.88-5.52 17.04-5.04 45.12-4.08 62.88 6.48 2.16 1.2 2.88 4.08 1.68 6.24-1.2 1.68-4.08 2.4-6.24 1.2z" fill="white"/>
  </g>
</svg>
