<svg xmlns="http://www.w3.org/2000/svg" viewBox="0 0 512 512" fill="none">
  <rect width="512" height="512" fill="#1DB954" rx="128"/>
  <g transform="translate(128, 128)">
    <path d="M128 0C57.6 0 0 57.6 0 128s57.6 128 128 128 128-57.6 128-128S198.56 0 128 0zm58.88 184.96c-2.56 3.84-7.04 5.12-10.88 2.56-30.08-18.56-67.84-22.4-112.64-12.16-4.48 1.28-8.32-1.92-9.6-5.76-1.28-4.48 1.92-8.32 5.76-9.6 48.64-10.88 90.88-6.4 124.16 14.08 4.48 1.92 5.12 7.04 3.2 10.88zm15.36-35.2c-3.2 4.48-8.96 6.4-13.44 3.2-34.56-21.12-87.04-27.52-127.36-14.72-5.12 1.28-10.88-1.28-12.16-6.4-1.28-5.12 1.28-10.88 6.4-12.16 46.08-14.08 104.32-7.04 144 16.64 3.84 1.92 5.76 8.32 2.56 12.8zm1.28-35.84c-24.32-14.4-64.64-15.68-87.68-8.64-6.4 1.92-12.8-1.92-14.72-7.68-1.92-6.4 1.92-12.8 7.68-14.72 45.44-13.44 120.32-10.88 167.68 17.28 5.76 3.2 7.68 10.88 4.48 16.64-3.2 4.48-10.88 6.4-16.64 3.2z" fill="white"/>
  </g>
</svg>
